<?xml version="1.0" encoding="UTF-8"?>
<svg id="Layer_1" xmlns="http://www.w3.org/2000/svg" version="1.1" viewBox="0 0 1920 3412.98">
  <!-- Generator: Adobe Illustrator 29.5.1, SVG Export Plug-In . SVG Version: 2.1.0 Build 141)  -->
  <defs>
    <style>
      .st0 {
        fill: #fff7e9;
      }

      .st1 {
        fill: #ffeac0;
      }
    </style>
  </defs>
  <path class="st0" d="M520.34,3412.98H-.95V0h1920.95v2.61l-342.22-.06c-12.96,14.17-31.23,23.75-46.66,36.75-19.88,16.75-45.58,43.29-62.09,63.62-23.11,28.44-45.49,70.94-46.98,112.06-3.67,101.37,81.56,154.75,174.4,119.71,59.23-22.36,80.35-65.61,152.95-63.63,25.36.7,52.51,8.98,78.11,10.51,31.79,1.9,63.29-.05,92.5-13.01v166.87c-18.12,6.82-33.69,13.5-46.75,28.12-28.13,31.49-50.86,66.34-67.59,104.42-15.74,35.83-31.18,96.69-26.49,137.4,4.37,37.96,26.39,65.4,21.14,106.99-.2,1.59-14.52,26.04-15.96,27.85-11.46,14.43-45.9,28.86-63.79,30.59-48.76,4.72-84.47-8.09-124.02-32.39-79.49-48.84-186.77-152.86-251.1-225.89-45.44-51.59-121.92-132.87-129.2-207.06-12.48-127.1,67.55-244.73,47.14-373.08-1.45-9.09-.54-20.22-2.81-29.78h-211.12l-5.48,79.26c-13.03,99.11-45.59,152.47-88,235.85-40.09,78.82-48.83,128.49-20.54,215.47,5.28,16.25,9.29,37.88,15.87,56.47,46.02,129.96,229.9,225.49,339.92,298.63,181.91,120.94,348.58,282.83,543.18,392.26,5.42,3.05,12.86,9.86,19.01,12.82,20.7,9.94,43.8,20.38,66.59,23.34v169.48c-19.4-1.7-38.8-8.04-57.22-14.47-86.34-30.14-176.89-80.36-259.87-119.42-182-85.68-390.68-200.5-581.59-259.07-166.7-51.14-279.59-43.84-372.42,110.77-51.62,85.97-79.27,196.19-184.22,227.81-40.52,12.21-58.63,2.49-94.87-10.2-97.08-33.98-199.55-74.18-298.47-100.28-22.93-6.05-45.45-14.75-69.69-15.06v471.93c19.15,9.02,42.27,16.53,60.7,26.09,81.1,42.06,133.14,103.22,235.16,109.46,201.04,12.3,379.51-113.52,480.59-275.91,87.28-140.23,144.88-303.96,353.7-264.03,38.88,7.43,108.59,24.37,143.68,49.21,6.2,4.39,14.19,12.64,6.84,18.96-47.05,1.58-92.79-9.24-140.07-5.07-95.24,8.41-161.68,65.88-207.4,142.46-15.27,25.58-29.21,54.78-42.67,79.44-116.96,214.21-336.29,331.71-562.06,407.55-96.48,32.41-228.59,57.33-310.85,111.56-5.47,3.61-11.13,8.03-17.62,9.62v1194.15c4.61.18,9.13.29,13.71-.62,70.74-14.04,178.72-59.79,238.7-92.92,135.78-74.99,226.24-152.22,169.51-321.49-22.65-67.6-47.2-119.32-62.06-193.95-14.1-70.8-20.34-143.84-42.58-212.93-19.4-60.26-69.73-132.4-57.57-197.18,16.2-86.31,145.96-172.76,216.46-216.29,98.84-61.03,202.87-112.32,298.61-177.86,103.47-70.83,198.8-160.9,303.27-230.48,147.37-98.15,303.29-102.12,464.68-23.39,110.55,53.93,226.47,171.7,357.99,138.54,5-1.26,10.9-7.57,17.62-7.15v179.91c-43.09,3.65-86.41,3.72-128.81-5.42-100.21-21.61-175.34-72.2-258.87-124.88-100.31-63.27-188.48-97.83-309.67-96.65-92.2.9-148.72,35.14-222.33,80.62-99.16,61.26-195.53,130.62-290.72,197.39-31.69,22.23-64.52,43.37-94.25,66.27-55.18,42.48-100.22,80.67-134.2,141.48-47.69,85.34-1.12,182.83,38.95,264.22,47.25,95.98,67.47,129.08,172.77,165.6,213.58,74.07,402.03,5.64,597.93-78.12,128.16-54.79,245.4-133.22,392.6-93.54,73.95,19.93,153.07,65.08,219.21,106.63,5.24,3.29,10.89,7.67,17.38,7.39v756.12h-80.8c-5.1-8.49-1.23-18.34-2.76-27.22-3.48-20.25-62.23-86.98-77.01-109.37-25.87-39.18-37.27-66.85-67.9-104.17-62.87-76.6-128.07-165.66-200.26-233.87-68.72-64.94-127.92-88.67-226.91-86.06-81.55,2.15-183.69,29.06-259.67,60.4-56.88,23.46-134.3,60.66-190.61,92.79-97.87,55.85-126.49,111.12-184.35,207.41-29.58,49.24-52.93,102.94-81.72,152.23-9.13,15.64-23.63,29.01-27.68,47.86ZM202.35,2.61H1.65v260.73c8.36.02,12.16-14.51,16.67-19.92,54.11-64.87,123.34-88.49,162.91-174.59,3.75-8.15,24.49-63.06,21.12-66.22ZM880.03,2.61h-336.23c-2.24,8.78-3.23,21.34-5.31,29.44-.66,2.55-8.03,20.75-10.44,25.97-37.15,80.75-125,130.61-181.19,195.97-36.28,42.2-69.83,99.41-94.71,147.16-36.47,69.98-50.79,151.43-78.76,225.1-.88,2.32-4.45,2.16-4.84,3.96-.93,4.25.83,8.45-.84,13.17-3.88,10.96-73.37,58.39-84.74,62.93-25.32,10.11-54.04,16.54-81.32,15.9v435.45c44.71,2.4,89.88,8.73,133.54,18.94,72,16.85,129,48.44,206.34,40.74,86.8-8.65,131.25-88.48,154.65-163.39,6.95-22.27,3.43-35.83,6.2-56.37,6.03-44.83,26.39-108.85,64.46-134.27,78.11-52.13,191.29-4.2,278.12-10.6,38.64-2.85,42.78-19.34,25.6-51.9-28.82-54.62-90.23-106.16-122.68-162.81-128.63-224.58,76.35-400.08,128.79-608.77,1.96-7.81,1.87-18.36,3.36-26.62Z"/>
  <path class="st1" d="M1920,1845.98c-6.72-.42-12.62,5.89-17.62,7.15-131.52,33.16-247.44-84.61-357.99-138.54-161.4-78.73-317.32-74.77-464.68,23.39-104.47,69.58-199.79,159.65-303.27,230.48-95.74,65.53-199.77,116.83-298.61,177.86-70.5,43.53-200.26,129.97-216.46,216.29-12.16,64.78,38.17,136.92,57.57,197.18,22.24,69.08,28.47,142.12,42.58,212.93,14.87,74.63,39.41,126.36,62.06,193.95,56.73,169.27-33.73,246.5-169.51,321.49-59.98,33.13-167.96,78.87-238.7,92.92-4.58.91-9.11.81-13.71.62v-1194.15c6.49-1.59,12.15-6.02,17.62-9.62,82.25-54.24,214.36-79.16,310.85-111.56,225.77-75.84,445.1-193.34,562.06-407.55,13.46-24.66,27.4-53.86,42.67-79.44,45.71-76.58,112.15-134.05,207.4-142.46,47.28-4.18,93.02,6.64,140.07,5.07,7.35-6.32-.64-14.57-6.84-18.96-35.08-24.84-104.8-41.78-143.68-49.21-208.82-39.92-266.42,123.8-353.7,264.03-101.07,162.39-279.54,288.21-480.59,275.91-102.02-6.24-154.06-67.4-235.16-109.46-18.43-9.56-41.55-17.07-60.7-26.09v-471.93c24.24.3,46.76,9.01,69.69,15.06,98.92,26.1,201.39,66.31,298.47,100.28,36.24,12.68,54.36,22.41,94.87,10.2,104.96-31.63,132.6-141.84,184.22-227.81,92.83-154.62,205.72-161.91,372.42-110.77,190.91,58.57,399.59,173.39,581.59,259.07,82.98,39.06,173.52,89.28,259.87,119.42,18.41,6.43,37.81,12.77,57.22,14.47v359.81Z"/>
  <path class="st1" d="M1920,2656.86c-6.49.28-12.15-4.1-17.38-7.39-66.15-41.55-145.26-86.7-219.21-106.63-147.2-39.68-264.45,38.75-392.6,93.54-195.91,83.76-384.35,152.19-597.93,78.12-105.3-36.52-125.52-69.62-172.77-165.6-40.07-81.4-86.65-178.88-38.95-264.22,33.98-60.81,79.02-98.99,134.2-141.48,29.73-22.89,62.57-44.04,94.25-66.27,95.19-66.77,191.56-136.13,290.72-197.39,73.61-45.48,130.13-79.72,222.33-80.62,121.19-1.18,209.36,33.38,309.67,96.65,83.53,52.68,158.66,103.27,258.87,124.88,42.4,9.14,85.72,9.08,128.81,5.42v153.83c-24.63-.93-49.64,1.28-74.26-.03-91.63-4.88-205.51-31.88-297.01-49.67-107.15-20.83-214.35-47.45-321.95-71.65-103.1-23.19-182.82-10.81-269.16,51.08-31.98,22.92-90.63,89.99-90.63,131.53v50.84c11.06,1.64,10.03-10.8,16.51-14.75,11.9-7.27,19.75-17.47,25.86-21.15,2.37-1.43,6.79.21,8.97-1.35,24.64-17.58,40.12-30.4,70.49-40.36,58.78-19.28,104.1-7.06,163.7-.75,180.51,19.13,363.7,23.4,541.36,63.36,70.52,15.86,140.3,37.84,210.48,55.42,5.31,1.33,10.17,1.88,15.62,1.3v323.31Z"/>
  <path class="st1" d="M1920,1316.7c-22.79-2.95-45.89-13.4-66.59-23.34-6.15-2.95-13.59-9.77-19.01-12.82-194.6-109.43-361.27-271.32-543.18-392.26-110.02-73.14-293.91-168.67-339.92-298.63-6.58-18.59-10.59-40.22-15.87-56.47-28.29-86.98-19.55-136.66,20.54-215.47,42.41-83.38,74.98-136.74,88-235.85l5.48-79.26h211.12c2.28,9.55,1.37,20.68,2.81,29.78,20.41,128.35-59.63,245.98-47.14,373.08,7.29,74.19,83.77,155.47,129.2,207.06,64.33,73.04,171.6,177.06,251.1,225.89,39.55,24.3,75.26,37.11,124.02,32.39,17.89-1.73,52.34-16.16,63.79-30.59,1.44-1.81,15.76-26.26,15.96-27.85,5.25-41.59-16.77-69.03-21.14-106.99-4.69-40.71,10.75-101.57,26.49-137.4,16.73-38.08,39.46-72.93,67.59-104.42,13.06-14.62,28.63-21.3,46.75-28.12v881.27Z"/>
  <path class="st1" d="M520.34,3412.98c4.06-18.85,18.55-32.22,27.68-47.86,28.79-49.3,52.13-103,81.72-152.23,57.86-96.3,86.48-151.57,184.35-207.41,56.31-32.13,133.73-69.33,190.61-92.79,75.97-31.34,178.12-58.25,259.67-60.4,98.99-2.61,158.19,21.13,226.91,86.06,72.19,68.21,137.39,157.27,200.26,233.87,30.63,37.32,42.04,64.99,67.9,104.17,14.78,22.39,73.53,89.12,77.01,109.37,1.53,8.89-2.34,18.73,2.76,27.22h-310.17c1.77-6.38-.6-7.1-2.91-10.91-36.39-60.05-69.91-123.59-95.84-189.36-31.45-79.77-34.15-155.33-147.7-144.04-65.99,6.56-100.8,74.04-146.63,109.45-41.29,31.91-79.15,39.72-100.77,94.14-20.82,52.41-9.31,92.22,14.26,140.72h-529.11Z"/>
  <path class="st0" d="M1920,2179.72v153.83c-5.45.58-10.31.03-15.62-1.3-70.18-17.58-139.96-39.56-210.48-55.42-177.66-39.96-360.85-44.23-541.36-63.36-59.6-6.32-104.92-18.53-163.7.75-30.37,9.96-45.86,22.78-70.49,40.36-2.18,1.56-6.6-.08-8.97,1.35-6.11,3.68-13.96,13.89-25.86,21.15-6.48,3.96-5.45,16.39-16.51,14.75v-50.84c0-41.54,58.65-108.61,90.63-131.53,86.34-61.89,166.06-74.27,269.16-51.08,107.61,24.2,214.8,50.82,321.95,71.65,91.5,17.79,205.38,44.79,297.01,49.67,24.62,1.31,49.63-.91,74.26.03Z"/>
  <path class="st1" d="M1920,2.61v265.95c-29.21,12.96-60.72,14.91-92.5,13.01-25.59-1.53-52.74-9.81-78.11-10.51-72.59-1.99-93.71,41.27-152.95,63.63-92.84,35.04-178.07-18.34-174.4-119.71,1.49-41.11,23.87-83.61,46.98-112.06,16.52-20.33,42.21-46.87,62.09-63.62,15.43-13,33.7-22.58,46.66-36.75l342.22.06Z"/>
  <path class="st0" d="M1049.45,3412.98c-23.57-48.5-35.08-88.31-14.26-140.72,21.62-54.42,59.48-62.23,100.77-94.14,45.83-35.41,80.63-102.89,146.63-109.45,113.55-11.29,116.24,64.27,147.7,144.04,25.93,65.77,59.45,129.31,95.84,189.36,2.31,3.81,4.68,4.53,2.91,10.91h-479.59Z"/>
  <path class="st1" d="M880.03,2.61c-1.49,8.26-1.4,18.81-3.36,26.62-52.44,208.69-257.42,384.18-128.79,608.77,32.44,56.65,93.86,108.19,122.68,162.81,17.18,32.56,13.04,49.05-25.6,51.9-86.83,6.4-200.01-41.53-278.12,10.6-38.08,25.41-58.43,89.44-64.46,134.27-2.77,20.55.75,34.11-6.2,56.37-23.39,74.92-67.84,154.75-154.65,163.39-77.34,7.7-134.34-23.89-206.34-40.74-43.66-10.21-88.84-16.54-133.54-18.94v-435.45c27.28.63,56-5.79,81.32-15.9,11.37-4.54,80.86-51.97,84.74-62.93,1.67-4.72-.09-8.92.84-13.17.39-1.8,3.96-1.64,4.84-3.96,27.96-73.67,42.29-155.12,78.76-225.1,24.88-47.75,58.43-104.96,94.71-147.16,56.19-65.36,144.04-115.22,181.19-195.97,2.4-5.22,9.78-23.41,10.44-25.97,2.08-8.11,3.08-20.67,5.31-29.44h336.23Z"/>
  <path class="st1" d="M202.35,2.61c3.38,3.16-17.37,58.07-21.12,66.22-39.57,86.1-108.8,109.72-162.91,174.59-4.51,5.41-8.31,19.95-16.67,19.92V2.61h200.7Z"/>
</svg>