<?xml version="1.0" encoding="UTF-8"?>
<svg id="Layer_2" data-name="Layer 2" xmlns="http://www.w3.org/2000/svg" viewBox="0 0 263.71 52.78">
  <g id="Layer_1-2" data-name="Layer 1">
    <path d="M258.65,5.07v42.65H5.07V5.07h253.58M259.7,4.02H4.02v44.74h255.68V4.02h0Z"/>
    <path d="M6.99,1.05v5.94H1.05V1.05h5.94M8.04,0H0v8.04h8.04V0h0Z"/>
    <path d="M6.99,45.79v5.94H1.05v-5.94h5.94M8.04,44.74H0v8.04h8.04v-8.04h0Z"/>
    <path d="M262.67,1.05v5.94h-5.94V1.05h5.94M263.71,0h-8.04v8.04h8.04V0h0Z"/>
    <path d="M262.67,45.79v5.94h-5.94v-5.94h5.94M263.71,44.74h-8.04v8.04h8.04v-8.04h0Z"/>
    <path d="M134.83,1.05v5.94h-5.94V1.05h5.94M135.88,0h-8.04v8.04h8.04V0h0Z"/>
    <path d="M134.83,45.79v5.94h-5.94v-5.94h5.94M135.88,44.74h-8.04v8.04h8.04v-8.04h0Z"/>
  </g>
</svg>